<?xml version="1.0" encoding="iso-8859-1"?>
<!-- Generator: Adobe Illustrator 18.1.1, SVG Export Plug-In . SVG Version: 6.00 Build 0)  -->
<svg version="1.1" id="Capa_1" xmlns="http://www.w3.org/2000/svg" xmlns:xlink="http://www.w3.org/1999/xlink" x="0px" y="0px"
	 viewBox="0 0 576.504 576.504" style="enable-background:new 0 0 576.504 576.504;" xml:space="preserve">
<g>
	<g>
		<path style="fill:#010002;" d="M7.956,447.371c-0.408,0.814-1.428,1.225-3.06,1.225H3.06c-2.04-1.225-3.06-2.65-3.06-4.285
			V200.123c0-2.04,0.816-3.468,2.448-4.284c1.632-0.408,3.264-0.408,4.896,0l162.792,93.024c1.632,0.814,2.448,2.041,2.448,3.672
			c0,2.041-0.612,3.264-1.836,3.672L7.956,447.371z M555.084,514.691c1.225,1.633,1.633,3.264,1.225,4.896
			c-1.225,2.039-2.854,3.063-4.896,3.063H18.972c-2.856,0-5.916-1.021-9.18-3.063c-1.632-0.816-2.448-2.041-2.448-3.672
			c0-1.633,0.612-2.857,1.836-3.672l207.468-192.781c1.632-1.631,3.468-1.836,5.508-0.611l55.08,31.215
			c7.752,4.484,15.707,4.484,23.867,0l62.424-36.723c2.449-1.633,4.285-1.428,5.512,0.611L555.084,514.691z M574.057,192.167
			c1.631,0.816,2.447,2.244,2.447,4.284v258.263c0,2.041-1.021,3.469-3.063,4.285c-0.404,0.408-1.02,0.611-1.836,0.611
			c-1.223,0-2.445-0.611-3.672-1.836L413.1,290.699c-1.223-1.227-1.631-2.448-1.223-3.672c0-1.632,0.609-2.856,1.836-3.672
			l155.447-91.188C570.385,190.943,572.016,190.943,574.057,192.167z M556.92,53.855c5.713,0,10.404,1.836,14.076,5.508
			s5.508,8.16,5.508,13.464v58.752c0,2.856-1.428,4.284-4.283,4.284c-2.449,0.408-4.693,1.428-6.732,3.06L291.313,299.878
			c-0.408,0.408-1.225,0.613-2.449,0.613s-2.04-0.205-2.446-0.613L3.672,138.923C1.224,137.291,0,135.659,0,134.027v-61.2
			c0-5.304,1.836-9.792,5.508-13.464s8.16-5.508,13.464-5.508H556.92L556.92,53.855z"/>
	</g>
</g>
<g>
</g>
<g>
</g>
<g>
</g>
<g>
</g>
<g>
</g>
<g>
</g>
<g>
</g>
<g>
</g>
<g>
</g>
<g>
</g>
<g>
</g>
<g>
</g>
<g>
</g>
<g>
</g>
<g>
</g>
</svg>
