<?xml version="1.0" encoding="utf-8"?>
<!-- Generator: Adobe Illustrator 15.0.0, SVG Export Plug-In . SVG Version: 6.00 Build 0)  -->
<!DOCTYPE svg PUBLIC "-//W3C//DTD SVG 1.1//EN" "http://www.w3.org/Graphics/SVG/1.1/DTD/svg11.dtd">
<svg version="1.1" id="Capa_1" xmlns="http://www.w3.org/2000/svg" xmlns:xlink="http://www.w3.org/1999/xlink" x="0px" y="0px"
	 width="488.398px" height="488.398px" viewBox="0 0 488.398 488.398" enable-background="new 0 0 488.398 488.398"
	 xml:space="preserve">
<g>
	<path d="M207.548,137.764h89.539c12.359,0,22.379-10.202,22.379-22.565c0-12.362-10.02-22.559-22.379-22.559h-89.539
		c-12.358,0-22.388,10.198-22.388,22.559C185.159,127.562,195.188,137.764,207.548,137.764z"/>
	<path d="M395.563,191.047H207.548c-12.358,0-22.388,10.197-22.388,22.56c-0.001,12.363,10.028,22.564,22.388,22.564h188.015
		c12.367,0,22.389-10.202,22.389-22.564C417.951,201.242,407.93,191.047,395.563,191.047z"/>
	<path d="M398.744,0H171.72c-27.702,0-50.053,22.454-50.053,50.146v186.627l20.233-45.556c1.975-4.401,6.355-7.26,11.171-7.26
		c0.153,0,0.303,0.014,0.455,0.02c-4.598,0.207-8.726,3.006-10.625,7.24l-20.233,45.556L104.97,276.62L9.775,295.677
		c-4.401,0.906-7.935,4.14-9.244,8.465c-1.319,4.268-0.135,8.937,3.062,12.171l66.297,66.25l-18.526,94.869
		c-0.925,4.63,0.269,9.117,3.851,11.998c2.139,1.685,4.883,2.609,7.733,2.609c1.713,0,3.389-0.356,4.911-1.049l86.211-38.25
		l86.357,38.299c1.463,0.702,3.09,1.059,4.854,1.059c2.743,0,5.44-0.935,7.568-2.63c3.601-2.86,4.813-7.48,3.938-12.036
		l-12.838-65.58h194.396c27.703,0,50.054-22.609,50.054-50.308V91.857L398.744,0z M85.875,451.385L98.25,388.09
		c1.839-9.436-1.127-19.171-7.935-25.97l-44.276-44.248l64.584-12.922c4.453-0.892,8.558-2.811,12.044-5.518
		c3.714-2.884,6.727-6.663,8.688-11.083l22.716-51.122l4.111,9.254l18.604,41.877c1.962,4.419,4.972,8.196,8.682,11.078
		c3.484,2.707,7.586,4.627,12.04,5.523l64.604,12.931l-7.577,7.563l-36.728,36.655c-3.842,3.838-6.465,8.613-7.689,13.743
		c-0.944,3.96-1.055,8.132-0.245,12.246l4.645,23.753l7.728,39.513l-56.457-25.036c-3.727-1.657-7.723-2.483-11.719-2.483
		c-3.987,0-7.973,0.826-11.709,2.483L85.875,451.385z M452.883,361.545c0,7.952-6.59,14.308-14.538,14.308H244.914l50.478-50.398
		H404.52c12.358,0,22.388-9.962,22.388-22.326c0-12.361-10.029-22.32-22.389-22.32H224.137l-20.957-4.196l-37.95-85.421
		c-1.375-3.091-3.96-5.409-7.048-6.513c-0.328-0.117-0.662-0.221-1-0.311V50.147c0-7.95,6.591-14.631,14.538-14.631h209.634v40.31
		c0,17.722,14.36,32.141,32.078,32.322l39.45,0.403V361.545z"/>
</g>
</svg>
