<?xml version="1.0" encoding="iso-8859-1"?>
<!-- Generator: Adobe Illustrator 18.1.1, SVG Export Plug-In . SVG Version: 6.00 Build 0)  -->
<svg version="1.1" id="Capa_1" xmlns="http://www.w3.org/2000/svg" xmlns:xlink="http://www.w3.org/1999/xlink" x="0px" y="0px"
	 viewBox="0 0 412.65 412.65" style="enable-background:new 0 0 412.65 412.65;" xml:space="preserve">
<g>
	<g id="Layer_5_64_">
		<g>
			<g>
				<path d="M342.963,166.078c12.312-15.706,48.483-61.846,48.483-61.846c13.025-16.616,12.695-38.62-3.919-51.645
					c-16.615-13.026-38.063-8.091-51.087,8.524l-49.043,62.559c0,0-1.042,1.33,0.054,2.189c11.518,9.03,42.729,33.496,51.556,40.416
					C340.508,167.452,341.361,168.121,342.963,166.078z"/>
				<path d="M282.399,140.946c-0.727-0.569-1.289-0.425-1.784,0.274c-5.34,7.567-37.382,52.895-49.465,68.308
					c-7.602,9.698-7.964,27.592-5.17,37.73c0.093,0.337,0.456,0.774-0.082,1.46c-1.485,1.895-2.339,3.222-3.198,4.316
					c-2.32,2.96-1.054,6.478,1.114,8.103c2.262,1.695,6.091,2.323,8.412-0.636c0.86-1.098,1.95-2.25,3.44-4.15
					c0.421-0.537,0.936-0.444,1.226-0.435c10.489,0.333,27.928-4.266,35.565-14.008c12.19-15.55,48.843-57.772,54.427-64.198
					c0.463-0.532,0.919-1.171-0.084-1.958C315.7,167.052,293.761,149.853,282.399,140.946z"/>
				<path d="M377.264,168.661c-2.374,3.03-6.757,3.561-9.786,1.186l0,0c-3.031-2.375-3.561-6.757-1.186-9.788l33.901-43.245
					c2.374-3.03,6.756-3.561,9.786-1.185l0,0c3.03,2.376,3.561,6.757,1.186,9.787L377.264,168.661z"/>
			</g>
			<g>
				<path d="M232.299,165.483c0,2.929-2.396,5.327-5.325,5.327H47.264c-2.931,0-5.327-2.397-5.327-5.327v-5.549
					c0-2.929,2.396-5.325,5.327-5.325h179.711c2.929,0,5.325,2.396,5.325,5.325v5.549H232.299z"/>
			</g>
			<path d="M232.299,279.388c0,2.928-2.398,5.324-5.329,5.324h-69.828c-2.931,0-5.327-2.396-5.327-5.324v-4.551
				c0-2.929,2.396-5.325,5.327-5.325h69.828c2.931,0,5.329,2.396,5.329,5.325V279.388z"/>
			<g>
				<path d="M232.299,116.312c0,2.929-2.396,5.325-5.325,5.325H47.264c-2.931,0-5.327-2.396-5.327-5.325v-5.551
					c0-2.929,2.396-5.325,5.327-5.325h179.711c2.929,0,5.325,2.396,5.325,5.325v5.551H232.299z"/>
			</g>
			<path d="M254.649,279.051v55.688c0,10.175-8.325,18.5-18.5,18.5H38.088c-10.175,0-18.5-8.325-18.5-18.5V77.913
				c0-10.175,8.325-18.5,18.5-18.5h198.06c10.175,0,18.5,8.325,18.5,18.5v59.163c0,5.662,2.795,2.839,4.089,1.151
				c3.303-4.308,9.538-11.459,12.05-14.139c2.589-2.762,3.449-5.119,3.449-8.429V58.324c0-10.175-8.325-18.5-18.5-18.5H18.5
				c-10.175,0-18.5,8.325-18.5,18.5v296.002c0,10.175,8.325,18.5,18.5,18.5h237.237c10.175,0,18.5-8.325,18.5-18.5v-83
				c0-4.833-2.813-4.079-4.226-3.389c-3.892,1.901-7.772,3.316-11.309,4.366C257.289,272.723,254.649,273.326,254.649,279.051z"/>
		</g>
	</g>
</g>
<g>
</g>
<g>
</g>
<g>
</g>
<g>
</g>
<g>
</g>
<g>
</g>
<g>
</g>
<g>
</g>
<g>
</g>
<g>
</g>
<g>
</g>
<g>
</g>
<g>
</g>
<g>
</g>
<g>
</g>
</svg>
