<?xml version="1.0" encoding="iso-8859-1"?>
<!-- Generator: Adobe Illustrator 16.0.0, SVG Export Plug-In . SVG Version: 6.00 Build 0)  -->
<!DOCTYPE svg PUBLIC "-//W3C//DTD SVG 1.1//EN" "http://www.w3.org/Graphics/SVG/1.1/DTD/svg11.dtd">
<svg version="1.1" id="Capa_1" xmlns="http://www.w3.org/2000/svg" xmlns:xlink="http://www.w3.org/1999/xlink" x="0px" y="0px"
	 width="488.399px" height="488.399px" viewBox="0 0 488.399 488.399" style="enable-background:new 0 0 488.399 488.399;"
	 xml:space="preserve">
<g>
	<g>
		<path d="M127.409,163.369H233.59c14.656,0,26.538-12.097,26.538-26.758c0-14.661-11.882-26.752-26.538-26.752H127.409
			c-14.655,0-26.548,12.092-26.548,26.752C100.86,151.271,112.753,163.369,127.409,163.369z"/>
		<path d="M127.409,280.066H350.37c14.666,0,26.549-12.098,26.549-26.758c0-14.662-11.883-26.753-26.549-26.753H127.409
			c-14.655,0-26.548,12.092-26.548,26.753C100.86,267.969,112.753,280.066,127.409,280.066z"/>
		<path d="M360.991,332.999H127.409c-14.655,0-26.548,11.81-26.548,26.469c0,14.661,11.893,26.476,26.548,26.476h233.583
			c14.655,0,26.549-11.814,26.549-26.476C387.54,344.809,375.647,332.999,360.991,332.999z"/>
		<path d="M355.329,0H86.11C53.259,0,26.753,26.627,26.753,59.467v369.275c0,32.846,26.506,59.657,59.357,59.657h316.18
			c32.851,0,59.356-26.812,59.356-59.657V108.929L355.329,0z M402.29,445.709H86.11c-9.424,0-17.241-7.537-17.241-16.966V59.467
			c0-9.428,7.817-17.351,17.241-17.351h248.597v47.802c0,21.016,17.029,38.115,38.04,38.33l46.783,0.478v300.017
			C419.53,438.172,411.714,445.709,402.29,445.709z"/>
	</g>
</g>
<g>
</g>
<g>
</g>
<g>
</g>
<g>
</g>
<g>
</g>
<g>
</g>
<g>
</g>
<g>
</g>
<g>
</g>
<g>
</g>
<g>
</g>
<g>
</g>
<g>
</g>
<g>
</g>
<g>
</g>
</svg>
