<?xml version="1.0" encoding="utf-8"?>
<!-- Generator: Adobe Illustrator 15.0.0, SVG Export Plug-In . SVG Version: 6.00 Build 0)  -->
<!DOCTYPE svg PUBLIC "-//W3C//DTD SVG 1.1//EN" "http://www.w3.org/Graphics/SVG/1.1/DTD/svg11.dtd">
<svg version="1.1" id="Capa_1" xmlns="http://www.w3.org/2000/svg" xmlns:xlink="http://www.w3.org/1999/xlink" x="0px" y="0px"
	 width="65.2px" height="65.197px" viewBox="0 0 65.2 65.197" enable-background="new 0 0 65.2 65.197" xml:space="preserve">
<g>
	<path fill="#000002" d="M57.604,10.895H7.597c-2.623,0-4.756,2.135-4.756,4.758v33.893c0,2.623,2.134,4.756,4.756,4.756h50.007
		c2.622,0,4.756-2.133,4.756-4.756V15.653C62.36,13.03,60.226,10.895,57.604,10.895z M57.604,14.973
		c0.084,0,0.164,0.019,0.238,0.047l-24.325,18.65c-0.455,0.348-1.38,0.348-1.834,0L7.358,15.02c0.075-0.029,0.155-0.047,0.239-0.047
		H57.604L57.604,14.973z M57.604,50.224H7.597c-0.368,0-0.679-0.312-0.679-0.68V19.821l22.285,17.085
		c0.953,0.729,2.175,1.096,3.397,1.096c1.222,0,2.445-0.365,3.396-1.096l22.285-17.085v29.725
		C58.284,49.914,57.972,50.224,57.604,50.224z"/>
</g>
</svg>
