<?xml version="1.0" encoding="iso-8859-1"?>
<!-- Generator: Adobe Illustrator 16.0.0, SVG Export Plug-In . SVG Version: 6.00 Build 0)  -->
<!DOCTYPE svg PUBLIC "-//W3C//DTD SVG 1.1//EN" "http://www.w3.org/Graphics/SVG/1.1/DTD/svg11.dtd">
<svg version="1.1" id="Capa_1" xmlns="http://www.w3.org/2000/svg" xmlns:xlink="http://www.w3.org/1999/xlink" x="0px" y="0px"
	 width="396.787px" height="396.787px" viewBox="0 0 396.787 396.787" style="enable-background:new 0 0 396.787 396.787;"
	 xml:space="preserve">
<g>
	<path d="M202.041,0C134.381,0,65.894,33.968,65.894,98.896v165.391c0,73.063,59.436,132.5,132.5,132.5
		c73.063,0,132.5-59.437,132.5-132.5V98.896C330.894,30.945,264.102,0,202.041,0z M202.041,24.941
		c51.721,0,103.911,22.865,103.911,73.956v62.229c-90.893,34.757-187.339,8.585-215.118-0.405V98.896
		C90.834,50.859,148.13,24.941,202.041,24.941z M198.394,371.847c-59.312,0-107.559-48.245-107.559-107.56v-77.354
		c22.271,6.737,64.192,16.931,113.751,16.931c31.73,0,66.579-4.238,101.366-16.209v76.632
		C305.952,323.602,257.702,371.847,198.394,371.847z M187.481,144.258V53.846c0-6.884,5.587-12.471,12.471-12.471
		c6.881,0,12.471,5.587,12.471,12.471v90.412c0,6.884-5.59,12.471-12.471,12.471C193.068,156.729,187.481,151.147,187.481,144.258z"
		/>
</g>
<g>
</g>
<g>
</g>
<g>
</g>
<g>
</g>
<g>
</g>
<g>
</g>
<g>
</g>
<g>
</g>
<g>
</g>
<g>
</g>
<g>
</g>
<g>
</g>
<g>
</g>
<g>
</g>
<g>
</g>
</svg>
