<?xml version="1.0" encoding="iso-8859-1"?>
<!-- Generator: Adobe Illustrator 16.0.0, SVG Export Plug-In . SVG Version: 6.00 Build 0)  -->
<!DOCTYPE svg PUBLIC "-//W3C//DTD SVG 1.1//EN" "http://www.w3.org/Graphics/SVG/1.1/DTD/svg11.dtd">
<svg version="1.1" id="Capa_1" xmlns="http://www.w3.org/2000/svg" xmlns:xlink="http://www.w3.org/1999/xlink" x="0px" y="0px"
	 width="537.891px" height="537.891px" viewBox="0 0 537.891 537.891" style="enable-background:new 0 0 537.891 537.891;"
	 xml:space="preserve">
<g>
	<path d="M444.656,0H93.234C81.401,0,71.719,9.562,71.719,21.516v494.859c0,11.834,9.682,21.516,21.516,21.516h351.422
		c11.834,0,21.516-9.562,21.516-21.516V21.516C466.172,9.682,456.49,0,444.656,0z M125.508,82.477
		c0-5.977,4.781-10.758,10.758-10.758h121.922c5.977,0,10.758,4.781,10.758,10.758v23.309c0,5.977-4.781,10.758-10.758,10.758
		H136.266c-5.977,0-10.758-4.781-10.758-10.758V82.477z M340.664,347.836c0,5.977-4.781,10.758-10.758,10.758H136.266
		c-5.977,0-10.758-4.781-10.758-10.758v-23.309c0-5.977,4.781-10.758,10.758-10.758h193.641c5.977,0,10.758,4.781,10.758,10.758
		V347.836z M412.383,267.152c0,5.977-4.781,10.758-10.758,10.758H136.266c-5.977,0-10.758-4.781-10.758-10.758v-23.309
		c0-5.977,4.781-10.758,10.758-10.758h265.359c5.977,0,10.758,4.781,10.758,10.758V267.152z M412.383,186.469
		c0,5.977-4.781,10.758-10.758,10.758H136.266c-5.977,0-10.758-4.781-10.758-10.758V163.16c0-5.977,4.781-10.758,10.758-10.758
		h265.359c5.977,0,10.758,4.781,10.758,10.758V186.469z"/>
</g>
<g>
</g>
<g>
</g>
<g>
</g>
<g>
</g>
<g>
</g>
<g>
</g>
<g>
</g>
<g>
</g>
<g>
</g>
<g>
</g>
<g>
</g>
<g>
</g>
<g>
</g>
<g>
</g>
<g>
</g>
</svg>
