<?xml version="1.0" encoding="iso-8859-1"?>
<!-- Generator: Adobe Illustrator 18.1.1, SVG Export Plug-In . SVG Version: 6.00 Build 0)  -->
<svg version="1.1" id="Capa_1" xmlns="http://www.w3.org/2000/svg" xmlns:xlink="http://www.w3.org/1999/xlink" x="0px" y="0px"
	 viewBox="0 0 456.462 456.462" style="enable-background:new 0 0 456.462 456.462;" xml:space="preserve">
<g>
	<path d="M331.432,456.462c-2.84,0-5.644-0.902-7.976-2.626l-69.746-51.513c-61.79,7.816-124.364-13.449-168.428-57.521
		c-78.775-78.771-78.775-206.947,0-285.722c78.771-78.771,206.95-78.778,285.722,0c49.817,49.817,69.896,120.423,53.831,189.06
		c-0.105,0.64-0.255,1.276-0.455,1.909c-2.179,9.046-5.214,18.523-8.886,27.622l-31.444,74.823
		c-2.871,6.836-10.746,10.047-17.582,7.176c-6.836-2.874-10.05-10.746-7.176-17.582l31.371-74.645
		c3.088-7.658,5.707-15.823,7.714-24.094c0.028-0.147,0.063-0.294,0.098-0.441c14.316-59.804-3.053-121.427-46.46-164.841
		c-68.312-68.305-179.447-68.298-247.745,0c-68.302,68.305-68.302,179.444,0,247.745c39.368,39.368,95.766,57.744,150.94,49.18
		c3.528-0.573,7.158,0.336,10.04,2.465l60.423,44.624l13.274-31.584c2.867-6.836,10.742-10.043,17.582-7.176
		c6.836,2.874,10.05,10.746,7.176,17.582l-19.894,47.331c-1.595,3.798-4.847,6.651-8.819,7.746
		C333.82,456.305,332.625,456.462,331.432,456.462z"/>
	<path d="M313.245,160.407H151.495c-5.934,0-10.742-4.808-10.742-10.742s4.808-10.742,10.742-10.742h161.749
		c5.934,0,10.742,4.808,10.742,10.742S319.179,160.407,313.245,160.407z"/>
	<path d="M313.245,221.995H151.495c-5.934,0-10.742-4.808-10.742-10.742s4.808-10.742,10.742-10.742h161.749
		c5.934,0,10.742,4.808,10.742,10.742S319.179,221.995,313.245,221.995z"/>
	<path d="M243.96,283.582h-92.465c-5.934,0-10.742-4.808-10.742-10.742c0-5.934,4.808-10.742,10.742-10.742h92.465
		c5.934,0,10.742,4.808,10.742,10.742C254.703,278.774,249.895,283.582,243.96,283.582z"/>
</g>
<g>
</g>
<g>
</g>
<g>
</g>
<g>
</g>
<g>
</g>
<g>
</g>
<g>
</g>
<g>
</g>
<g>
</g>
<g>
</g>
<g>
</g>
<g>
</g>
<g>
</g>
<g>
</g>
<g>
</g>
</svg>
