<?xml version="1.0" encoding="iso-8859-1"?>
<!-- Generator: Adobe Illustrator 17.1.0, SVG Export Plug-In . SVG Version: 6.00 Build 0)  -->
<!DOCTYPE svg PUBLIC "-//W3C//DTD SVG 1.1//EN" "http://www.w3.org/Graphics/SVG/1.1/DTD/svg11.dtd">
<svg version="1.1" id="Capa_1" xmlns="http://www.w3.org/2000/svg" xmlns:xlink="http://www.w3.org/1999/xlink" x="0px" y="0px"
	 viewBox="0 0 283.14 283.14" style="enable-background:new 0 0 283.14 283.14;" xml:space="preserve">
<g>
	<path style="fill:#000002;" d="M280.858,242.621L153.128,27.803c-2.726-4.583-6.939-7.212-11.558-7.212
		c-4.619,0-8.832,2.629-11.557,7.213L2.282,242.621c-2.757,4.636-3.028,9.597-0.745,13.61c2.284,4.015,6.687,6.317,12.081,6.317
		h255.904c5.393,0,9.797-2.303,12.081-6.317C283.886,252.217,283.615,247.256,280.858,242.621z M16.803,247.548L141.57,37.716
		l124.767,209.832H16.803z"/>
	<path style="fill:#000002;" d="M131.57,108.25v64.095c0,5.522,4.478,10,10,10c5.523,0,10-4.478,10-10V108.25
		c0-5.523-4.477-10-10-10C136.047,98.25,131.57,102.727,131.57,108.25z"/>
	<path style="fill:#000002;" d="M141.57,196.885c-5.522,0-10,4.478-10,10v5.026c0,5.522,4.478,10,10,10c5.523,0,10-4.478,10-10
		v-5.026C151.57,201.363,147.092,196.885,141.57,196.885z"/>
</g>
<g>
</g>
<g>
</g>
<g>
</g>
<g>
</g>
<g>
</g>
<g>
</g>
<g>
</g>
<g>
</g>
<g>
</g>
<g>
</g>
<g>
</g>
<g>
</g>
<g>
</g>
<g>
</g>
<g>
</g>
</svg>
