<?xml version="1.0" encoding="iso-8859-1"?>
<!-- Generator: Adobe Illustrator 18.0.0, SVG Export Plug-In . SVG Version: 6.00 Build 0)  -->
<!DOCTYPE svg PUBLIC "-//W3C//DTD SVG 1.1//EN" "http://www.w3.org/Graphics/SVG/1.1/DTD/svg11.dtd">
<svg version="1.1" id="Capa_1" xmlns="http://www.w3.org/2000/svg" xmlns:xlink="http://www.w3.org/1999/xlink" x="0px" y="0px"
	 viewBox="0 0 354.45 354.45" style="enable-background:new 0 0 354.45 354.45;" xml:space="preserve">
<g>
	<g>
		<path d="M212.953,154.822h-27.617v-12.814c0-4.143-3.357-7.5-7.5-7.5h-74.4c-4.143,0-7.5,3.357-7.5,7.5v12.814H76.922
			C74,144.402,65.148,136.453,54.256,134.83L18.729,84.508l32.297-15.612c-0.271,1.818-0.416,3.679-0.416,5.571
			c0,4.143,3.357,7.5,7.5,7.5h60.102c4.143,0,7.5-3.357,7.5-7.5c0-20.704-16.846-37.549-37.553-37.549
			c-9.455,0-18.1,3.521-24.709,9.312L4.236,74.852c-1.984,0.96-3.447,2.743-3.998,4.876c-0.551,2.134-0.137,4.402,1.135,6.202
			l36.373,51.522c-6.941,3.477-12.246,9.761-14.379,17.369H7.5c-4.143,0-7.5,3.357-7.5,7.5v30.943c0,4.143,3.357,7.5,7.5,7.5h16.732
			v109.266c0,4.143,3.357,7.5,7.5,7.5h21.77c4.143,0,7.5-3.357,7.5-7.5V200.765h98.449v109.266c0,4.143,3.357,7.5,7.5,7.5h21.77
			c4.143,0,7.5-3.357,7.5-7.5V200.765h16.732c4.143,0,7.5-3.357,7.5-7.5v-30.943C220.453,158.18,217.096,154.822,212.953,154.822z
			 M88.158,51.918c9.807,0,18.172,6.291,21.269,15.049H66.893C69.99,58.209,78.354,51.918,88.158,51.918z M110.936,149.508h59.4
			v5.314h-59.4V149.508z M50.143,149.508c4.267,0,8.055,2.097,10.385,5.314H39.758C42.088,151.604,45.875,149.508,50.143,149.508z
			 M46.002,302.531h-6.77V200.765h6.77V302.531z M181.221,302.531h-6.77V200.765h6.77V302.531z M205.453,185.765H15v-15.943h190.453
			V185.765z"/>
		<g>
			<path d="M338.367,111.504c-1.455-0.321-2.945-0.484-4.43-0.484c-9.533,0-17.947,6.764-20.004,16.082
				c-0.012,0.048-0.022,0.095-0.031,0.143l-12.184,60.766c-1.789,8.255,1.693,16.455,8.188,21.069l-0.791,2.634h-6.711
				l-10.516-29.296c-1.068-2.979-3.893-4.966-7.059-4.966h-54.053c-4.143,0-7.5,3.357-7.5,7.5c0,4.143,3.357,7.5,7.5,7.5h5.271
				l6.914,19.262h-4.959c-11.303,0-20.498,9.195-20.498,20.498c0,11.304,9.195,20.5,20.498,20.5h29.873v36.268l-21.896,14.845
				c-3.428,2.324-4.322,6.988-1.998,10.417c1.449,2.139,3.811,3.292,6.215,3.292c1.447,0,2.912-0.419,4.201-1.293l20.979-14.223
				l20.977,14.223c1.291,0.874,2.754,1.293,4.203,1.293c2.402,0,4.764-1.153,6.215-3.292c2.324-3.429,1.43-8.093-2-10.417
				l-21.895-14.845v-36.268h29.871c11.303,0,20.498-9.196,20.498-20.5c0-7.232-3.775-13.588-9.449-17.237l0.699-2.325
				c8.369-1.149,15.414-7.463,17.273-15.878c0.012-0.048,0.022-0.096,0.031-0.144l12.182-60.763
				C356.369,124.853,349.379,113.936,338.367,111.504z M251.986,192.451h27.568l6.914,19.262H258.9L251.986,192.451z
				 M312.748,237.711h-74.744c-3.031,0-5.498-2.467-5.498-5.5c0-3.031,2.467-5.498,5.498-5.498h74.744
				c3.031,0,5.498,2.467,5.498,5.498C318.246,235.244,315.779,237.711,312.748,237.711z M339.318,132.709
				c-0.01,0.048-0.02,0.096-0.029,0.142l-12.178,60.739c-0.574,2.473-2.813,4.263-5.348,4.263c-0.396,0-0.801-0.045-1.195-0.132
				c-2.961-0.654-4.838-3.597-4.186-6.558c0.012-0.048,0.022-0.096,0.031-0.142l12.178-60.741c0.574-2.473,2.813-4.261,5.346-4.261
				c0.398,0,0.801,0.045,1.195,0.132C338.096,126.805,339.973,129.747,339.318,132.709z"/>
		</g>
	</g>
</g>
<g>
</g>
<g>
</g>
<g>
</g>
<g>
</g>
<g>
</g>
<g>
</g>
<g>
</g>
<g>
</g>
<g>
</g>
<g>
</g>
<g>
</g>
<g>
</g>
<g>
</g>
<g>
</g>
<g>
</g>
</svg>
