<svg id="Warstwa_1" data-name="Warstwa 1" xmlns="http://www.w3.org/2000/svg" viewBox="0 0 83 83"><defs><style>.cls-1{fill:#6bbd45;}</style></defs><title>wykres</title><path class="cls-1" d="M82.53,4.06A2.59,2.59,0,1,0,78.21,1.2L68.62,15.72a7.56,7.56,0,0,0-1.21-.12A7.68,7.68,0,0,0,60,25.72L50.78,37.53A7.72,7.72,0,0,0,38.94,43.8L24.3,52.33a7.75,7.75,0,0,0-12.43,9.26L0.46,79A2.59,2.59,0,1,0,4.8,81.83L16.13,64.55a7.64,7.64,0,0,0,9.79-7.16l14.65-8.53a7.72,7.72,0,0,0,13.49-7.09L63.31,30a7.74,7.74,0,0,0,9.87-11.74ZM18.18,59.67a2.59,2.59,0,1,1,2.59-2.59A2.59,2.59,0,0,1,18.18,59.67Zm28.51-13a2.59,2.59,0,1,1,2.59-2.59A2.59,2.59,0,0,1,46.68,46.7ZM67.41,26A2.59,2.59,0,1,1,70,23.37,2.59,2.59,0,0,1,67.41,26ZM15.59,77.82a2.59,2.59,0,1,0,2.59,2.59A2.59,2.59,0,0,0,15.59,77.82Zm13,0a2.59,2.59,0,1,0,2.59,2.59A2.59,2.59,0,0,0,28.54,77.82Zm13,0a2.59,2.59,0,1,0,2.59,2.59A2.59,2.59,0,0,0,41.5,77.82Zm13,0A2.59,2.59,0,1,0,57,80.41,2.59,2.59,0,0,0,54.46,77.82Zm13,0A2.59,2.59,0,1,0,70,80.41,2.59,2.59,0,0,0,67.41,77.82Zm13,0A2.59,2.59,0,1,0,83,80.41,2.59,2.59,0,0,0,80.37,77.82ZM2.63,70A2.59,2.59,0,1,0,0,67.44,2.59,2.59,0,0,0,2.63,70Zm0-13A2.59,2.59,0,1,0,0,54.48,2.59,2.59,0,0,0,2.63,57.07Zm0-13A2.59,2.59,0,1,0,0,41.52,2.59,2.59,0,0,0,2.63,44.11Zm0-13A2.59,2.59,0,1,0,0,28.56,2.59,2.59,0,0,0,2.63,31.15Zm0-13A2.59,2.59,0,1,0,0,15.59,2.59,2.59,0,0,0,2.63,18.19Zm0-13A2.59,2.59,0,1,0,0,2.63,2.59,2.59,0,0,0,2.63,5.22Z"/></svg>