<?xml version="1.0" encoding="utf-8"?>
<!-- Generator: Adobe Illustrator 15.0.0, SVG Export Plug-In . SVG Version: 6.00 Build 0)  -->
<!DOCTYPE svg PUBLIC "-//W3C//DTD SVG 1.1//EN" "http://www.w3.org/Graphics/SVG/1.1/DTD/svg11.dtd">
<svg version="1.1" id="Capa_1" xmlns="http://www.w3.org/2000/svg" xmlns:xlink="http://www.w3.org/1999/xlink" x="0px" y="0px"
	 width="65.2px" height="64.91px" viewBox="0 0 65.2 64.91" enable-background="new 0 0 65.2 64.91" xml:space="preserve">
<g>
	<path fill="#000002" d="M63.323,48.732l-9.424-9.428c-1.266-1.26-2.959-1.953-4.771-1.953c-1.883,0-3.664,0.742-5.008,2.088
		l-3.67,3.668c-2.85-1.584-6.639-3.764-10.571-7.696c-3.929-3.931-6.108-7.707-7.7-10.573l3.671-3.669
		c2.73-2.735,2.786-7.125,0.125-9.783l-9.422-9.422C15.291,0.698,13.596,0,11.781,0C9.938,0,8.196,0.709,6.858,2.001
		c-0.81,0.65-4.87,4.236-6.383,11.628c-2.119,10.349,2.75,20.304,16.804,34.364c15.7,15.695,29.103,16.916,32.837,16.916
		c0.777,0,1.246-0.049,1.371-0.063c7.322-0.859,9.945-4.111,11.859-6.486C65.827,55.286,65.817,51.236,63.323,48.732z
		 M60.196,55.824c-1.799,2.23-3.498,4.339-9.178,5.005c-0.004,0-0.314,0.035-0.902,0.035c-3.34,0-15.375-1.136-29.976-15.73
		C7.179,32.167,2.629,23.275,4.438,14.442c1.32-6.447,4.825-9.188,4.961-9.293L9.52,5.06l0.106-0.105
		c0.585-0.584,1.351-0.907,2.155-0.907c0.733,0,1.41,0.275,1.91,0.776l9.424,9.424c1.084,1.083,1.027,2.906-0.127,4.063
		l-4.152,4.148l-0.068,0.071c-1.082,1.192-0.955,2.803-0.358,3.852c1.72,3.104,4.076,7.354,8.609,11.892
		c4.519,4.518,8.763,6.871,11.858,8.588c0.311,0.175,0.949,0.467,1.75,0.467c0.944,0,1.813-0.4,2.457-1.13l3.896-3.896
		c0.582-0.582,1.347-0.904,2.147-0.904c0.734,0,1.416,0.275,1.914,0.771l9.418,9.422C61.655,52.792,61.161,54.626,60.196,55.824z"/>
</g>
</svg>
