<?xml version="1.0" encoding="iso-8859-1"?>
<!-- Generator: Adobe Illustrator 18.1.1, SVG Export Plug-In . SVG Version: 6.00 Build 0)  -->
<svg version="1.1" id="Capa_1" xmlns="http://www.w3.org/2000/svg" xmlns:xlink="http://www.w3.org/1999/xlink" x="0px" y="0px"
	 viewBox="0 0 454.748 454.748" style="enable-background:new 0 0 454.748 454.748;" xml:space="preserve">
<g>
	<g>
		<path d="M271.782,292.084h-16.135c-46.845,0-84.954-38.109-84.954-84.95v-92.213c0-46.841,38.109-84.95,84.954-84.95h16.135
			c46.838,0,84.947,38.109,84.947,84.95v92.213C356.729,253.975,318.62,292.084,271.782,292.084z M255.648,56.938
			c-31.976,0-57.986,26.01-57.986,57.982v92.213c0,31.972,26.01,57.982,57.986,57.982h16.135c31.969,0,57.979-26.01,57.979-57.982
			v-92.213c0-31.972-26.01-57.982-57.979-57.982H255.648z"/>
		<g>
			<path d="M441.256,424.778H86.17c-7.445,0-13.484-6.039-13.484-13.484v-31.619c-0.689-20.453,23.618-37.574,81.282-56.797
				c25.136-8.382,50.023-14.834,63.633-18.166v-24.366c0-7.445,6.036-13.484,13.484-13.484s13.484,6.039,13.484,13.484v35.032
				c0,6.312-4.378,11.778-10.54,13.155c-66.728,14.949-129.207,38.812-134.386,51.272l0.007,18.006h341.606
				c7.448,0,13.484,6.039,13.484,13.484S448.705,424.778,441.256,424.778z"/>
			<path d="M441.256,424.778c-7.448,0-13.484-6.039-13.484-13.484v-31.507c-5.238-12.477-67.686-36.322-134.379-51.254
				c-7.267-1.626-11.841-8.833-10.211-16.1c1.63-7.27,8.854-11.83,16.1-10.211c1.518,0.339,37.585,8.456,74.176,20.656
				c57.664,19.222,81.974,36.343,81.275,57.248l0.007,31.168C454.74,418.739,448.705,424.778,441.256,424.778z"/>
		</g>
	</g>
	<path d="M160.102,283.401h-12.914c-37.906,0-68.746-30.839-68.746-68.746v-73.792c0-37.906,30.839-68.749,68.746-68.749h12.914
		c6.382,0,11.557,5.175,11.557,11.557s-5.175,11.557-11.557,11.557h-12.914c-25.16,0-45.631,20.471-45.631,45.635v73.792
		c0,25.16,20.471,45.631,45.631,45.631h12.914c6.382,0,11.557,5.175,11.557,11.557C171.659,278.226,166.483,283.401,160.102,283.401
		z"/>
	<path d="M11.567,423.606c-6.382,0-11.557-5.175-11.557-11.557v-59.322c-0.902-26.965,60.542-47.607,115.971-60.657v-18.831
		c0-6.382,5.175-11.557,11.557-11.557c6.382,0,11.557,5.175,11.557,11.557v28.035c0,5.41-3.752,10.096-9.033,11.277
		c-52.44,11.75-102.043,30.549-106.946,40.473l0.007,59.024C23.124,418.431,17.949,423.606,11.567,423.606z"/>
</g>
<g>
</g>
<g>
</g>
<g>
</g>
<g>
</g>
<g>
</g>
<g>
</g>
<g>
</g>
<g>
</g>
<g>
</g>
<g>
</g>
<g>
</g>
<g>
</g>
<g>
</g>
<g>
</g>
<g>
</g>
</svg>
